<svg
	width="17"
	height="20"
	viewBox="0 0 17 20"
>
	<path
		fill-rule="evenodd"
		clip-rule="evenodd"
		d="M12.2014 18.817C12.2014 19.0521 12.6149 19.3931 12.6149 19.3931C9.10941 20.7582 5.59368 19.3931 5.59368 19.3931C5.9064 19.3189 6.01746 19.0518 6.01746 18.8155V16.5819C2.57767 17.3079 1.86189 15.1658 1.86189 15.1658C1.29915 13.7797 0.487517 13.4107 0.487517 13.4107C-0.633313 12.6651 0.572546 12.6801 0.572546 12.6801C1.81551 12.7656 2.46945 13.9177 2.46945 13.9177C3.57328 15.7523 5.36197 15.2228 6.06848 14.9168C6.17979 14.1397 6.49981 13.6117 6.85383 13.3117C4.10509 13.0072 1.21876 11.9766 1.21876 7.3803C1.21876 6.06921 1.70111 4.99964 2.49264 4.15958C2.36433 3.85506 1.94073 2.63548 2.61168 0.982375C2.61168 0.982375 3.65058 0.659855 6.01282 2.21246C7.0007 1.94544 8.05815 1.81343 9.10941 1.80893C10.1607 1.81493 11.2181 1.94544 12.206 2.21546C14.5667 0.662855 15.604 0.985375 15.604 0.985375C16.2781 2.63698 15.8545 3.85806 15.7262 4.16108C16.5193 4.99964 17.0001 6.07071 17.0001 7.3818C17.0001 11.9901 14.106 13.0057 11.3511 13.3027C11.7963 13.6747 12.2014 14.4038 12.2014 15.5243V18.817Z"
	/>
</svg>
