<svg
	width="32"
	height="33"
	viewBox="0 0 32 33"
	fill="none"
	xmlns="http://www.w3.org/2000/svg"
>
	<path
		d="M12.9233 6.57839C12.9233 7.60927 12.0934 8.43885 11.0771 8.43885C10.0608 8.43885 9.23093 7.60926 9.23093 6.57839C9.23093 5.54753 10.0608 4.71793 11.0771 4.71793C12.0934 4.71793 12.9233 5.54752 12.9233 6.57839ZM11.0771 8.06034C11.8962 8.06034 12.5541 7.39349 12.5541 6.57839C12.5541 5.7633 11.8962 5.09645 11.0771 5.09645C10.2581 5.09645 9.60017 5.7633 9.60017 6.57839C9.60017 7.39349 10.2581 8.06034 11.0771 8.06034Z"
		stroke="#7D7D7D"
		stroke-width="1.23079"
	/>
	<path
		d="M16.1935 8.46116L16.2881 7.90054C16.3867 7.31676 16.4311 6.76622 16.4311 6.2687C16.4311 3.43618 14.0061 1.18961 11.0771 1.18961C8.14822 1.18961 5.7232 3.43618 5.7232 6.2687C5.7232 6.76619 5.76759 7.31674 5.86613 7.90058L5.96074 8.46117L5.40938 8.59981L1.08238 9.68782C0.810167 9.75627 0.615425 10.0038 0.615425 10.292V31.3368C0.615425 31.5299 0.703933 31.7112 0.85345 31.8286L0.47338 32.3126L0.853459 31.8286C1.00274 31.9458 1.19659 31.9869 1.37926 31.941C1.37927 31.941 1.37929 31.941 1.3793 31.941L10.9271 29.5401L11.0771 29.5024L11.2272 29.5401L20.7749 31.941C20.775 31.941 20.775 31.941 20.7751 31.941C20.8725 31.9655 20.9744 31.9655 21.0718 31.941L16.1935 8.46116ZM16.1935 8.46116L16.7449 8.59981L20.7734 9.61277L20.9234 9.65051L21.0735 9.61277L30.6214 7.21197L30.6214 7.21196C30.8039 7.16605 30.9978 7.20711 31.1471 7.32435C31.2967 7.44182 31.3851 7.62305 31.3851 7.81612V28.8609C31.3851 29.149 31.1905 29.3966 30.9182 29.4651C30.9181 29.4651 30.9181 29.4651 30.9181 29.4652L21.0719 31.941L16.1935 8.46116ZM6.49273 10.1667L6.2962 9.65977L5.76888 9.79237L2.59073 10.5915C2.15305 10.7016 1.84621 11.0951 1.84621 11.5464V29.2777C1.84621 29.9185 2.44896 30.389 3.07096 30.2325C3.07102 30.2325 3.07108 30.2325 3.07114 30.2325L9.71709 28.5614C10.1549 28.4514 10.4617 28.0578 10.4617 27.6065V15.6521V15.3489L10.2213 15.1641C8.35714 13.7319 7.17549 11.9279 6.49273 10.1667ZM11.933 15.1641L11.6925 15.3489V15.6521V27.6065C11.6925 28.0578 11.9994 28.4514 12.4371 28.5614L19.0831 30.2325C19.7051 30.3891 20.308 29.9187 20.308 29.2777V11.5464C20.308 11.0951 20.0012 10.7016 19.5636 10.5915L19.5636 10.5915L16.3854 9.79237L15.8581 9.65978L15.6616 10.1667C14.9787 11.9279 13.7971 13.7319 11.933 15.1641ZM22.2833 10.5915L22.2832 10.5915C21.8457 10.7016 21.5388 11.0951 21.5388 11.5464V29.2777C21.5388 29.9186 22.1416 30.389 22.7636 30.2325C22.7637 30.2325 22.7637 30.2325 22.7638 30.2325L29.4098 28.5614C29.8475 28.4514 30.1544 28.0578 30.1544 27.6065V9.8752C30.1544 9.23402 29.5514 8.76398 28.9296 8.9203L28.9296 8.9203L22.2833 10.5915ZM11.0771 2.0633C8.56273 2.0633 6.58475 3.97858 6.58475 6.2687C6.58475 8.36913 7.45219 11.4403 9.92857 13.7748C10.575 14.3843 11.5793 14.3843 12.2257 13.7748C14.7021 11.4403 15.5695 8.36913 15.5695 6.2687C15.5695 3.97858 13.5915 2.0633 11.0771 2.0633Z"
		stroke="#7D7D7D"
		stroke-width="1.23079"
	/>
</svg>
